HIERARCHY
ROOT Hips
{
	OFFSET 2.108877 85.843872 6.433784
	CHANNELS 6 Xposition Yposition Zposition Zrotation Yrotation Xrotation 
	JOINT Spine
	{
		OFFSET -0.000000 8.814246 -2.080107
		CHANNELS 3 Zrotation Yrotation Xrotation
		JOINT Spine1
		{
			OFFSET 0.000000 8.844141 0.000000
			CHANNELS 3 Zrotation Yrotation Xrotation
			JOINT Spine2
			{
				OFFSET 0.000000 11.682268 -0.000000
				CHANNELS 3 Zrotation Yrotation Xrotation
				JOINT Spine3
				{
					OFFSET 0.000000 11.746700 0.000000
					CHANNELS 3 Zrotation Yrotation Xrotation
					JOINT Neck
					{
						OFFSET 0.000000 17.658264 -0.000000
						CHANNELS 3 Zrotation Yrotation Xrotation
						JOINT Neck1
						{
							OFFSET 0.000000 5.101515 -0.000000
							CHANNELS 3 Zrotation Yrotation Xrotation
							JOINT Head
							{
								OFFSET -0.000000 5.101515 0.000000
								CHANNELS 3 Zrotation Yrotation Xrotation
								JOINT HeadEnd
								{
									OFFSET 0.000000 11.655085 -0.000000
									CHANNELS 3 Zrotation Yrotation Xrotation
									End Site
									{
										OFFSET 0.000000 0.000000 0.000000
									}
								}
							}
						}
					}
					JOINT RightShoulder
					{
						OFFSET -2.625389 11.175210 -0.000000
						CHANNELS 3 Zrotation Yrotation Xrotation
						JOINT RightArm
						{
							OFFSET -0.000000 10.434715 0.000000
							CHANNELS 3 Zrotation Yrotation Xrotation
							JOINT RightForeArm
							{
								OFFSET -0.000000 29.628420 -0.000000
								CHANNELS 3 Zrotation Yrotation Xrotation
								JOINT RightHand
								{
									OFFSET -0.000000 22.857611 0.000000
									CHANNELS 3 Zrotation Yrotation Xrotation
									JOINT RightHandThumb1
									{
										OFFSET -2.867323 3.959563 2.944291
										CHANNELS 3 Zrotation Yrotation Xrotation
										JOINT RightHandThumb2
										{
											OFFSET -0.000000 3.350399 0.000000
											CHANNELS 3 Zrotation Yrotation Xrotation
											JOINT RightHandThumb3
											{
												OFFSET -0.000000 3.756509 0.000000
												CHANNELS 3 Zrotation Yrotation Xrotation
												JOINT RightHandThumb4
												{
													OFFSET 0.000000 3.147345 0.000000
													CHANNELS 3 Zrotation Yrotation Xrotation
													End Site
													{
														OFFSET 0.000000 0.000000 0.000000
													}
												}
											}
										}
									}
									JOINT RightHandIndex1
									{
										OFFSET -0.086752 10.030893 2.345280
										CHANNELS 3 Zrotation Yrotation Xrotation
										JOINT RightHandIndex2
										{
											OFFSET -0.000000 4.061090 0.000000
											CHANNELS 3 Zrotation Yrotation Xrotation
											JOINT RightHandIndex3
											{
												OFFSET 0.000000 3.248873 -0.000000
												CHANNELS 3 Zrotation Yrotation Xrotation
												JOINT RightHandIndex4
												{
													OFFSET 0.000000 2.639709 -0.000000
													CHANNELS 3 Zrotation Yrotation Xrotation
													End Site
													{
														OFFSET 0.000000 0.000000 0.000000
													}
												}
											}
										}
									}
									JOINT RightHandMiddle1
									{
										OFFSET 0.104102 9.502952 0.006768
										CHANNELS 3 Zrotation Yrotation Xrotation
										JOINT RightHandMiddle2
										{
											OFFSET 0.000000 4.568727 -0.000000
											CHANNELS 3 Zrotation Yrotation Xrotation
											JOINT RightHandMiddle3
											{
												OFFSET -0.000000 3.654981 0.000000
												CHANNELS 3 Zrotation Yrotation Xrotation
												JOINT RightHandMiddle4
												{
													OFFSET -0.000000 2.741236 0.000000
													CHANNELS 3 Zrotation Yrotation Xrotation
													End Site
													{
														OFFSET 0.000000 0.000000 0.000000
													}
												}
											}
										}
									}
									JOINT RightHandRing1
									{
										OFFSET 0.086752 8.921708 -2.267442
										CHANNELS 3 Zrotation Yrotation Xrotation
										JOINT RightHandRing2
										{
											OFFSET 0.000000 4.061090 0.000000
											CHANNELS 3 Zrotation Yrotation Xrotation
											JOINT RightHandRing3
											{
												OFFSET -0.000000 3.654981 0.000000
												CHANNELS 3 Zrotation Yrotation Xrotation
												JOINT RightHandRing4
												{
													OFFSET -0.000000 2.741236 0.000000
													CHANNELS 3 Zrotation Yrotation Xrotation
													End Site
													{
														OFFSET 0.000000 0.000000 0.000000
													}
												}
											}
										}
									}
									JOINT RightHandPinky1
									{
										OFFSET -0.173504 7.976997 -4.467199
										CHANNELS 3 Zrotation Yrotation Xrotation
										JOINT RightHandPinky2
										{
											OFFSET -0.000000 3.350399 0.000000
											CHANNELS 3 Zrotation Yrotation Xrotation
											JOINT RightHandPinky3
											{
												OFFSET 0.000000 2.842763 -0.000000
												CHANNELS 3 Zrotation Yrotation Xrotation
												JOINT RightHandPinky4
												{
													OFFSET -0.000000 2.639709 0.000000
													CHANNELS 3 Zrotation Yrotation Xrotation
													End Site
													{
														OFFSET 0.000000 0.000000 0.000000
													}
												}
											}
										}
									}
									JOINT RightForeArmEnd
									{
										OFFSET 0.000000 0.000000 0.000000
										CHANNELS 3 Zrotation Yrotation Xrotation
										End Site
										{
											OFFSET 0.000000 0.000000 0.000000
										}
									}
								}
								JOINT RightArmEnd
								{
									OFFSET 0.000000 0.000000 0.000000
									CHANNELS 3 Zrotation Yrotation Xrotation
									End Site
									{
										OFFSET 0.000000 0.000000 0.000000
									}
								}
							}
						}
					}
					JOINT LeftShoulder
					{
						OFFSET 2.625389 11.175210 -0.000000
						CHANNELS 3 Zrotation Yrotation Xrotation
						JOINT LeftArm
						{
							OFFSET 0.000000 10.813635 0.000000
							CHANNELS 3 Zrotation Yrotation Xrotation
							JOINT LeftForeArm
							{
								OFFSET 0.000000 28.724781 -0.000000
								CHANNELS 3 Zrotation Yrotation Xrotation
								JOINT LeftHand
								{
									OFFSET 0.644384 25.716167 -0.328871
									CHANNELS 3 Zrotation Yrotation Xrotation
									JOINT LeftHandThumb1
									{
										OFFSET 2.867323 3.959563 2.944291
										CHANNELS 3 Zrotation Yrotation Xrotation
										JOINT LeftHandThumb2
										{
											OFFSET -0.000000 3.350399 -0.000000
											CHANNELS 3 Zrotation Yrotation Xrotation
											JOINT LeftHandThumb3
											{
												OFFSET 0.000000 3.756509 0.000000
												CHANNELS 3 Zrotation Yrotation Xrotation
												JOINT LeftHandThumb4
												{
													OFFSET -0.000000 3.100000 -0.000000
													CHANNELS 3 Zrotation Yrotation Xrotation
													End Site
													{
														OFFSET 0.000000 0.000000 0.000000
													}
												}
											}
										}
									}
									JOINT LeftHandIndex1
									{
										OFFSET 0.086752 10.030893 2.345280
										CHANNELS 3 Zrotation Yrotation Xrotation
										JOINT LeftHandIndex2
										{
											OFFSET 0.000000 4.061090 -0.000000
											CHANNELS 3 Zrotation Yrotation Xrotation
											JOINT LeftHandIndex3
											{
												OFFSET 0.000000 3.248873 0.000000
												CHANNELS 3 Zrotation Yrotation Xrotation
												JOINT LeftHandIndex4
												{
													OFFSET -0.000000 2.639709 -0.000000
													CHANNELS 3 Zrotation Yrotation Xrotation
													End Site
													{
														OFFSET 0.000000 0.000000 0.000000
													}
												}
											}
										}
									}
									JOINT LeftHandMiddle1
									{
										OFFSET -0.104102 9.502952 0.006768
										CHANNELS 3 Zrotation Yrotation Xrotation
										JOINT LeftHandMiddle2
										{
											OFFSET 0.000000 4.568727 0.000000
											CHANNELS 3 Zrotation Yrotation Xrotation
											JOINT LeftHandMiddle3
											{
												OFFSET -0.000000 3.654981 -0.000000
												CHANNELS 3 Zrotation Yrotation Xrotation
												JOINT LeftHandMiddle4
												{
													OFFSET 0.000000 2.741236 -0.000000
													CHANNELS 3 Zrotation Yrotation Xrotation
													End Site
													{
														OFFSET 0.000000 0.000000 0.000000
													}
												}
											}
										}
									}
									JOINT LeftHandRing1
									{
										OFFSET -0.086752 8.921708 -2.267442
										CHANNELS 3 Zrotation Yrotation Xrotation
										JOINT LeftHandRing2
										{
											OFFSET 0.000000 4.061090 0.000000
											CHANNELS 3 Zrotation Yrotation Xrotation
											JOINT LeftHandRing3
											{
												OFFSET -0.000000 3.654981 -0.000000
												CHANNELS 3 Zrotation Yrotation Xrotation
												JOINT LeftHandRing4
												{
													OFFSET 0.000000 2.741236 0.000000
													CHANNELS 3 Zrotation Yrotation Xrotation
													End Site
													{
														OFFSET 0.000000 0.000000 0.000000
													}
												}
											}
										}
									}
									JOINT LeftHandPinky1
									{
										OFFSET 0.173504 7.976997 -4.467199
										CHANNELS 3 Zrotation Yrotation Xrotation
										JOINT LeftHandPinky2
										{
											OFFSET 0.000000 3.350399 0.000000
											CHANNELS 3 Zrotation Yrotation Xrotation
											JOINT LeftHandPinky3
											{
												OFFSET -0.000000 2.842763 -0.000000
												CHANNELS 3 Zrotation Yrotation Xrotation
												JOINT LeftHandPinky4
												{
													OFFSET -0.000000 2.639709 0.000000
													CHANNELS 3 Zrotation Yrotation Xrotation
													End Site
													{
														OFFSET 0.000000 0.000000 0.000000
													}
												}
											}
										}
									}
									JOINT LeftForeArmEnd
									{
										OFFSET 0.000000 0.000000 0.000000
										CHANNELS 3 Zrotation Yrotation Xrotation
										End Site
										{
											OFFSET 0.000000 0.000000 0.000000
										}
									}
								}
								JOINT LeftArmEnd
								{
									OFFSET 0.000000 0.000000 0.000000
									CHANNELS 3 Zrotation Yrotation Xrotation
									End Site
									{
										OFFSET 0.000000 0.000000 0.000000
									}
								}
							}
						}
					}
				}
			}
		}
	}
	JOINT RightUpLeg
	{
		OFFSET -11.289943 -0.000000 -0.000000
		CHANNELS 3 Zrotation Yrotation Xrotation
		JOINT RightLeg
		{
			OFFSET 0.000000 -38.200325 -0.000000
			CHANNELS 3 Zrotation Yrotation Xrotation
			JOINT RightFoot
			{
				OFFSET -0.000000 -39.900856 0.000000
				CHANNELS 3 Zrotation Yrotation Xrotation
				JOINT RightToeBase
				{
					OFFSET 0.000000 -0.000000 15.261641
					CHANNELS 3 Zrotation Yrotation Xrotation
					JOINT RightToeBaseEnd
					{
						OFFSET 0.000000 -0.000000 7.370709
						CHANNELS 3 Zrotation Yrotation Xrotation
						End Site
						{
							OFFSET 0.000000 0.000000 0.000000
						}
					}
				}
				JOINT RightLegEnd
				{
					OFFSET 0.000000 0.000000 0.000000
					CHANNELS 3 Zrotation Yrotation Xrotation
					End Site
					{
						OFFSET 0.000000 0.000000 0.000000
					}
				}
			}
			JOINT RightUpLegEnd
			{
				OFFSET 0.000000 0.000000 0.000000
				CHANNELS 3 Zrotation Yrotation Xrotation
				End Site
				{
					OFFSET 0.000000 0.000000 0.000000
				}
			}
		}
	}
	JOINT LeftUpLeg
	{
		OFFSET 11.315661 0.000000 0.000000
		CHANNELS 3 Zrotation Yrotation Xrotation
		JOINT LeftLeg
		{
			OFFSET 0.000000 -38.200325 -0.000000
			CHANNELS 3 Zrotation Yrotation Xrotation
			JOINT LeftFoot
			{
				OFFSET 0.000000 -39.900856 0.000000
				CHANNELS 3 Zrotation Yrotation Xrotation
				JOINT LeftToeBase
				{
					OFFSET -0.000000 0.000000 15.261641
					CHANNELS 3 Zrotation Yrotation Xrotation
					JOINT LeftToeBaseEnd
					{
						OFFSET 0.000000 -0.000000 7.539996
						CHANNELS 3 Zrotation Yrotation Xrotation
						End Site
						{
							OFFSET 0.000000 0.000000 0.000000
						}
					}
				}
				JOINT LeftLegEnd
				{
					OFFSET 0.000000 0.000000 0.000000
					CHANNELS 3 Zrotation Yrotation Xrotation
					End Site
					{
						OFFSET 0.000000 0.000000 0.000000
					}
				}
			}
			JOINT LeftUpLegEnd
			{
				OFFSET 0.000000 0.000000 0.000000
				CHANNELS 3 Zrotation Yrotation Xrotation
				End Site
				{
					OFFSET 0.000000 0.000000 0.000000
				}
			}
		}
	}
}
MOTION
Frames: 5
Frame Time: 0.016667
2.108877 85.843872 6.433784 7.366311 1.891112 -14.319648 -4.803537 1.543781 7.611696 0.144562 0.330886 0.963599 -3.409511 3.862740 12.948984 -2.718548 0.615558 5.746804 -4.530675 -1.646691 7.289640 0.036933 -3.966857 -2.812216 2.312032 1.112559 -19.057188 0.000000 0.000000 0.000000 94.570038 -0.792322 10.394508 60.177753 -33.213970 13.691449 0.302012 10.408144 23.729389 1.702733 19.126228 -1.215023 11.236528 -1.888869 39.607235 0.000000 0.000000 -27.360001 0.000000 0.000000 -18.999998 0.000000 0.000000 0.000000 13.525223 16.811014 -8.804397 10.822264 -0.691127 -3.273861 10.821606 0.291133 -3.086099 0.000000 0.000000 0.000000 13.869543 6.914893 -8.987038 10.415632 -0.890541 -1.269413 10.414263 0.099230 -1.088632 0.000000 0.000000 0.000000 17.165953 -8.899786 -8.627101 10.997164 1.837517 1.722875 10.991510 -0.124273 1.341442 0.000000 0.000000 0.000000 19.602762 -25.706371 -9.239554 10.114452 3.579195 4.762783 10.094716 -0.358811 4.060862 0.000000 0.000000 0.000000 0.000000 0.000000 0.000000 0.000000 0.000000 0.000000 -93.094139 0.767930 13.306390 -45.864296 46.182747 10.873838 -1.476025 -11.108634 38.257915 -8.386281 -14.025478 -14.728986 -11.386312 1.899954 39.541836 0.000000 0.000000 -27.720001 0.000000 0.000000 -19.250000 0.000000 0.000000 0.000000 -19.256647 16.782726 -9.445190 -11.101971 -0.673631 3.357541 -11.101356 0.307657 3.164993 0.000000 0.000000 0.000000 -16.495266 6.889104 -10.267548 -10.617434 -0.876769 1.293747 -10.616634 0.085360 1.109465 0.000000 0.000000 0.000000 -15.013661 -8.892817 -8.919851 -11.401581 1.821848 -1.785447 -11.395777 -0.138639 -1.390154 0.000000 0.000000 0.000000 -12.415347 -25.644579 -10.163789 -10.947162 3.507108 -5.151306 -10.926703 -0.420296 -4.392265 0.000000 0.000000 0.000000 0.000000 0.000000 0.000000 0.000000 0.000000 0.000000 -25.248217 -19.126856 -3.156702 -0.620571 -1.011655 31.559397 11.535252 -20.996735 18.262280 -2.952342 0.543449 -17.867565 0.000000 0.000000 0.000000 0.000000 0.000000 0.000000 0.000000 0.000000 0.000000 -9.825931 10.206704 22.125107 0.003744 0.137149 3.294587 4.704391 11.172412 13.573748 -0.658169 -0.997269 -15.441319 0.000000 0.000000 0.000000 0.000000 0.000000 0.000000 0.000000 0.000000 0.000000 
2.143281 85.908005 6.341925 7.985173 2.546024 -15.503736 -5.398742 1.442060 8.539421 -0.671892 0.462261 2.565836 -3.767841 2.807561 10.923171 -1.180725 0.164460 5.109605 -5.751687 -1.507894 6.850795 0.557413 -3.075703 -2.945936 1.172825 0.038037 -18.291773 0.000000 0.000000 0.000000 94.247498 -0.776401 11.264904 59.218517 -32.618515 14.827827 0.101392 7.665329 21.493111 1.124722 21.048264 -1.556084 10.850491 -1.840547 39.782837 -0.000040 0.000012 -26.693089 0.000011 0.000031 -18.529276 -0.000012 0.000007 -0.000003 13.047973 17.319254 -10.485691 10.758400 -0.688670 -3.264635 10.896973 0.316543 -3.060701 -0.000037 0.000006 0.000019 13.694780 7.072728 -10.224627 10.125310 -0.886187 -1.251297 10.072889 0.113016 -1.084844 0.000009 -0.000026 0.000021 16.552172 -9.095415 -8.571907 10.342177 1.874751 1.579083 10.198311 -0.111851 1.221626 0.000010 -0.000019 0.000013 18.288525 -26.115929 -8.361054 9.279887 3.682482 4.002006 9.045310 -0.302367 3.420410 -0.000143 0.000003 -0.000002 0.000000 0.000000 0.000000 0.000000 0.000000 0.000000 -92.735306 0.427505 13.482652 -50.385738 43.970863 8.611920 -1.241952 -10.467081 35.994949 -10.248619 -12.130826 -14.168420 -11.076222 1.847478 39.717297 0.000006 0.000004 -26.909809 -0.000040 -0.000021 -18.770929 -0.000007 -0.000031 0.001732 -18.936785 17.233107 -8.901816 -11.293755 -0.619526 3.514960 -11.459121 0.357844 3.297800 0.000006 0.000462 -0.000007 -16.571856 7.087002 -9.406258 -11.013473 -0.872492 1.365662 -10.822626 0.115569 1.163067 0.000408 -0.000046 -0.000011 -14.994244 -9.013011 -8.192512 -11.179151 1.845235 -1.817539 -11.292546 -0.139764 -1.411885 -0.000596 0.000001 -0.000014 -12.069971 -25.821690 -9.731009 -10.516220 3.571112 -4.845644 -10.483068 -0.382700 -4.150144 0.000012 -0.000012 -0.000021 0.000000 0.000000 0.000000 0.000000 0.000000 0.000000 -25.665403 -13.914892 -1.593214 -0.440689 -1.083210 28.895859 12.461730 -25.467051 17.676674 -2.910854 0.252684 -18.007984 0.000000 0.000000 0.000000 0.000000 0.000000 0.000000 0.000000 0.000000 0.000000 -8.823490 10.785071 23.028351 0.092409 0.610951 5.139461 5.586187 9.578141 11.499525 -0.415459 -1.223574 -15.405236 0.000000 0.000000 0.000000 0.000000 0.000000 0.000000 0.000000 0.000000 0.000000 
2.150758 85.933601 6.350653 7.991356 2.655722 -15.562657 -5.384130 1.425994 8.525816 -0.678250 0.452394 2.643497 -3.674945 2.794551 10.847121 -1.206969 0.153347 5.226597 -5.801872 -1.473430 6.858833 0.543705 -3.162292 -2.868200 1.219680 0.080789 -18.289186 0.000000 0.000000 0.000000 94.215942 -0.768820 11.266876 59.383656 -32.144466 14.735289 0.134854 7.700298 21.425091 1.526302 21.284273 -1.521560 10.884667 -1.846692 39.760571 -0.000017 0.000021 -26.800882 -0.000001 0.000034 -18.600267 0.000010 0.000013 -0.000014 13.049006 17.288332 -10.493171 10.737500 -0.689055 -3.262747 10.873809 0.316450 -3.060902 -0.000012 0.000024 0.000008 13.710690 7.057160 -10.228721 10.088309 -0.885724 -1.250901 10.033701 0.112836 -1.082988 0.000014 -0.000052 0.000018 16.560881 -9.069880 -8.624613 10.282887 1.873776 1.574031 10.147861 -0.111116 1.217746 0.000005 0.000093 -0.000005 18.267231 -26.043505 -8.466869 9.226874 3.682167 3.987539 8.999936 -0.299856 3.408162 -0.000179 0.000015 -0.000026 0.000000 0.000000 0.000000 0.000000 0.000000 0.000000 -92.713280 0.412021 13.593273 -50.496658 44.032150 8.394952 -1.222332 -10.412443 35.949821 -10.437505 -12.556146 -13.990441 -11.111071 1.850883 39.697220 0.000015 0.000012 -27.007835 -0.000026 -0.000012 -18.825584 0.000102 -0.000015 0.001789 -19.059408 17.225801 -8.997147 -11.394957 -0.619519 3.517030 -11.547993 0.358488 3.297212 0.000020 0.000457 -0.000003 -16.652060 7.083671 -9.531994 -11.067660 -0.872182 1.365404 -10.885733 0.116185 1.163680 0.000217 -0.000042 -0.000012 -15.034480 -9.006791 -8.331227 -11.185413 1.842923 -1.821799 -11.292806 -0.140535 -1.414510 -0.000760 0.000007 -0.000007 -12.103969 -25.784737 -9.909519 -10.452958 3.565077 -4.863791 -10.435932 -0.387496 -4.168442 0.000133 0.000008 -0.000033 0.000000 0.000000 0.000000 0.000000 0.000000 0.000000 -25.662651 -14.033069 -1.516960 -0.430904 -1.069788 28.829670 12.369068 -25.829550 17.767151 -2.934508 0.229816 -18.009123 0.000000 0.000000 0.000000 0.000000 0.000000 0.000000 0.000000 0.000000 0.000000 -8.822567 10.833681 22.939173 0.096945 0.609065 5.217060 5.629709 9.514634 11.601860 -0.428718 -1.210486 -15.404050 0.000000 0.000000 0.000000 0.000000 0.000000 0.000000 0.000000 0.000000 0.000000 
2.157902 85.952965 6.356596 7.986013 2.739465 -15.580779 -5.392719 1.423551 8.509371 -0.663604 0.444175 2.672477 -3.619392 2.798543 10.797750 -1.215863 0.147303 5.259984 -5.887718 -1.432947 6.766235 0.533478 -3.202209 -2.865914 1.248675 0.114654 -18.227318 0.000000 0.000000 0.000000 94.177658 -0.765685 11.274637 59.635601 -31.762625 14.610098 0.149600 7.820612 21.325333 1.683477 21.302395 -1.502630 10.896767 -1.845260 39.757629 -0.000007 0.000021 -26.830540 -0.000008 0.000036 -18.617483 0.000010 0.000012 -0.000013 12.971063 17.302311 -10.530272 10.733131 -0.690062 -3.255043 10.868795 0.316134 -3.054754 -0.000007 0.000025 0.000003 13.669213 7.058233 -10.229868 10.080966 -0.886414 -1.248070 10.022176 0.112605 -1.079137 0.000014 -0.000055 0.000021 16.531651 -9.068553 -8.627491 10.251686 1.875091 1.566823 10.130254 -0.110253 1.212436 0.000006 0.000215 -0.000003 18.232092 -26.028826 -8.496808 9.195567 3.686521 3.966811 8.964014 -0.297814 3.391704 -0.000238 0.000015 -0.000040 0.000000 0.000000 0.000000 0.000000 0.000000 0.000000 -92.605347 0.399346 13.670062 -50.661873 43.974106 8.212976 -1.192046 -10.547236 36.062065 -10.444445 -13.037006 -13.790999 -11.132353 1.849963 39.687885 0.000013 0.000013 -27.067629 -0.000023 -0.000012 -18.861050 0.000202 -0.000015 0.001777 -19.186832 17.242170 -8.964633 -11.513958 -0.620502 3.515603 -11.663698 0.358780 3.296111 0.000018 0.000517 -0.000002 -16.759916 7.091340 -9.520505 -11.165600 -0.872938 1.364569 -10.986167 0.116363 1.163169 0.000078 -0.000043 -0.000011 -15.115210 -9.014672 -8.351795 -11.256183 1.843375 -1.821760 -11.358950 -0.140924 -1.414518 -0.000815 0.000007 -0.000007 -12.192218 -25.781610 -9.987818 -10.475457 3.564728 -4.867364 -10.475985 -0.389398 -4.170576 0.000174 0.000008 -0.000035 0.000000 0.000000 0.000000 0.000000 0.000000 0.000000 -25.641932 -14.105390 -1.496344 -0.423457 -1.062645 28.734468 12.319747 -26.074631 17.851831 -2.949683 0.221152 -18.014330 0.000000 0.000000 0.000000 0.000000 0.000000 0.000000 0.000000 0.000000 0.000000 -8.802203 10.854454 22.818445 0.099104 0.609132 5.270806 5.661345 9.503486 11.705124 -0.430745 -1.199107 -15.403877 0.000000 0.000000 0.000000 0.000000 0.000000 0.000000 0.000000 0.000000 0.000000 
2.164285 85.966599 6.357183 7.975387 2.798718 -15.587792 -5.405570 1.425596 8.495214 -0.639282 0.440752 2.679787 -3.595509 2.812448 10.772687 -1.221721 0.145465 5.264328 -5.944130 -1.384280 6.654594 0.532130 -3.198967 -2.888195 1.262074 0.141647 -18.167427 0.000000 0.000000 0.000000 94.110153 -0.762305 11.280117 59.907379 -31.519154 14.474417 0.153768 7.932298 21.271709 1.745089 21.406364 -1.433635 10.891070 -1.841682 39.764824 -0.000002 0.000020 -26.805103 -0.000010 0.000037 -18.597755 0.000009 0.000012 -0.000013 12.887130 17.326597 -10.531111 10.722811 -0.694096 -3.238217 10.856476 0.312591 -3.040356 -0.000005 0.000027 0.000001 13.618359 7.062233 -10.202243 10.070227 -0.888361 -1.241099 10.005767 0.111309 -1.072548 0.000014 -0.000050 0.000023 16.500595 -9.069140 -8.608236 10.224058 1.878793 1.555197 10.111366 -0.107648 1.203503 0.000007 0.000289 -0.000002 18.229925 -26.015331 -8.521648 9.171007 3.697705 3.930057 8.929770 -0.290067 3.360663 -0.000284 0.000014 -0.000046 0.000000 0.000000 0.000000 0.000000 0.000000 0.000000 -92.466690 0.382606 13.717205 -50.809837 43.886574 8.079799 -1.160806 -10.735561 36.231033 -10.358183 -13.598581 -13.599999 -11.135206 1.848052 39.686554 0.000012 0.000014 -27.082163 -0.000022 -0.000013 -18.866234 0.000291 -0.000015 0.001786 -19.247437 17.261028 -8.906553 -11.598147 -0.623116 3.508934 -11.744495 0.357167 3.291803 0.000017 0.000594 -0.000002 -16.820555 7.099384 -9.487217 -11.240028 -0.874304 1.361683 -11.060540 0.115871 1.160993 0.000007 -0.000043 -0.000008 -15.190895 -9.021645 -8.360109 -11.327543 1.845265 -1.817193 -11.424200 -0.140164 -1.411917 -0.000806 0.000007 -0.000007 -12.306342 -25.779453 -10.065402 -10.525064 3.569180 -4.855547 -10.540105 -0.386485 -4.159424 0.000196 0.000008 -0.000035 0.000000 0.000000 0.000000 0.000000 0.000000 0.000000 -25.629454 -14.150400 -1.487409 -0.418079 -1.060247 28.648182 12.312989 -26.254230 17.930729 -2.962602 0.218339 -18.034426 0.000000 0.000000 0.000000 0.000000 0.000000 0.000000 0.000000 0.000000 0.000000 -8.784087 10.842175 22.712399 0.099813 0.607327 5.311699 5.698373 9.494159 11.798758 -0.431912 -1.186982 -15.408510 0.000000 0.000000 0.000000 0.000000 0.000000 0.000000 0.000000 0.000000 0.000000 
